<svg xmlns='http://www.w3.org/2000/svg' >
  <symbol id="s" viewBox="0 0 128 128">
    <path d="M64,49.12,125.76,80,64,110.88,2.24,80,64,49.12M64,48,0,80l64,32,64-32L64,48Z"/>
    <polygon points="16 56 80 56 112 72 48 72 16 56"/>
  </symbol>
  <symbol id="e" viewBox="0 0 128 128">
    <path d="M64,49.12,125.76,80,64,110.88,2.24,80,64,49.12M64,48,0,80l64,32,64-32L64,48Z"/>
    <polygon points="112 56 48 56 16 72 80 72 112 56"/>
  </symbol>
  <symbol id="w" viewBox="0 0 128 128">
    <path d="M64,49.12,125.76,80,64,110.88,2.24,80,64,49.12M64,48,0,80l64,32,64-32L64,48Z"/>
    <polygon points="112 88 48 24 16 40 80 104 112 88"/>
  </symbol>
  <symbol id="n" viewBox="0 0 128 128">
    <path d="M64,49.12,125.76,80,64,110.88,2.24,80,64,49.12M64,48,0,80l64,32,64-32L64,48Z"/>
    <polygon points="16 88 80 24 112 40 48 104 16 88"/>
  </symbol>
</svg>
