<svg xmlns="http://www.w3.org/2000/svg">
  <symbol id="n" viewBox="0 0 128 128">
    <path d="M63.88,49.06l61.25,30.63-61,15.25L2.87,64.31l61-15.25M64,48,0,64,64,96l64-16L64,48Z"/>
    <polygon points="16 72 80 40 112 56 48 88 16 72"/>
  </symbol>
  <symbol id="s" viewBox="0 0 128 128">
    <path d="M64.11,33.17l62,31L63.89,110.83l-62-31L64.11,33.17M64,32,0,80l64,32,64-48L64,32Z"/>
    <polygon points="16 72 80 40 112 56 48 88 16 72"/>
  </symbol>
  <symbol id="e" viewBox="0 0 128 128">
    <path d="M63.89,33.17l62.22,46.66-62,31L1.89,64.17l62-31M64,32,0,64l64,48,64-32L64,32Z"/>
    <polygon points="112 72 48 40 16 56 80 88 112 72"/>
  </symbol>
  <symbol id="w" viewBox="0 0 128 128">
    <path d="M64.12,49.06l61,15.25L63.88,94.94l-61-15.25L64.12,49.06M64,48,0,80,64,96l64-32L64,48Z"/>
    <polygon points="112 72 48 40 16 56 80 88 112 72"/>
  </symbol>
</svg>
