<svg xmlns="http://www.w3.org/2000/svg">
  <symbol id="0" viewBox="0 0 128 128">
    <path d="M64,49.12,125.76,80,64,110.88,2.24,80,64,49.12M64,48,0,80l64,32,64-32L64,48Z"/>
    <polygon points="0 80 16 72 80 104 64 112 0 80"/>
  </symbol>
  <symbol id="1" viewBox="0 0 128 128">
    <path d="M64,49.12,125.76,80,64,110.88,2.24,80,64,49.12M64,48,0,80l64,32,64-32L64,48Z"/>
    <polygon points="128 80 112 72 48 104 64 112 128 80"/>
  </symbol>
  <symbol id="2" viewBox="0 0 128 128">
    <path d="M64,49.12,125.76,80,64,110.88,2.24,80,64,49.12M64,48,0,80l64,32,64-32L64,48Z"/>
    <polygon points="48 56 64 48 128 80 112 88 48 56"/>
  </symbol>
  <symbol id="3" viewBox="0 0 128 128">
    <path d="M64,49.12,125.76,80,64,110.88,2.24,80,64,49.12M64,48,0,80l64,32,64-32L64,48Z"/>
    <polygon points="80 56 64 48 0 80 16 88 80 56"/>
  </symbol>
  <symbol id="4" viewBox="0 0 128 128">
    <path d="M64,49.12,125.76,80,64,110.88,2.24,80,64,49.12M64,48,0,80l64,32,64-32L64,48Z"/>
    <polygon points="64 96 112 72 128 80 64 112 0 80 16 72 64 96"/>
  </symbol>
  <symbol id="5" viewBox="0 0 128 128">
    <path d="M64,49.12,125.76,80,64,110.88,2.24,80,64,49.12M64,48,0,80l64,32,64-32L64,48Z"/>
    <polygon points="96 80 48 56 64 48 128 80 64 112 48 104 96 80"/>
  </symbol>
  <symbol id="6" viewBox="0 0 128 128">
    <path d="M64,49.12,125.76,80,64,110.88,2.24,80,64,49.12M64,48,0,80l64,32,64-32L64,48Z"/>
    <polygon points="64 64 112 88 128 80 64 48 0 80 16 88 64 64"/>
  </symbol>
  <symbol id="7" viewBox="0 0 128 128">
    <path d="M64,49.12,125.76,80,64,110.88,2.24,80,64,49.12M64,48,0,80l64,32,64-32L64,48Z"/>
    <polygon points="32 80 80 56 64 48 0 80 64 112 80 104 32 80"/>
  </symbol>
</svg>
