<svg xmlns="http://www.w3.org/2000/svg">
  <symbol id="ew" viewBox="0 0 128 128">
    <path d="M64.08,49.08l23.54,7.85,15.88,7.94,22.51,15-61.94,31L40.55,95.17l0,0,0,0-16-8-.07,0-.06,0L2.61,79.81,64.08,49.08M64,48,0,80l24,8,16,8,24,16,64-32L104,64,88,56,64,48Z"/>
    <polygon points="72 64 48 56 16 72 40 80 72 64"/>
    <polygon points="56 88 80 104 112 88 88 72 56 88"/>
    <path d="M88,57.12,101.76,64,40,94.88,26.24,88,88,57.12M88,56,24,88l16,8,64-32L88,56Z"/>
    <polygon points="84 70 76 66 44 82 52 86 84 70"/>
  </symbol>
  <symbol id="ns" viewBox="0 0 128 128">
    <path d="M63.92,49.08l61.47,30.73-21.71,7.24-.06,0-.07,0-16,8,0,0,0,0L63.93,110.85,2,79.88l22.51-15,15.88-7.94,23.54-7.85M64,48,40,56,24,64,0,80l64,32L88,96l16-8,24-8L64,48Z"/>
    <polygon points="56 64 80 56 112 72 88 80 56 64"/>
    <polygon points="72 88 48 104 16 88 40 72 72 88"/>
    <path d="M40,57.12,101.76,88,88,94.88,26.24,64,40,57.12M40,56,24,64,88,96l16-8L40,56Z"/>
    <polygon points="44 70 52 66 84 82 76 86 44 70"/>
  </symbol>
</svg>
