<svg xmlns="http://www.w3.org/2000/svg">
  <symbol id="0" viewBox="0 0 128 128">
    <path d="M64,49.12,125.76,80,64,110.88,2.24,80,64,49.12M64,48,0,80l64,32,64-32L64,48Z" />
    <polygon points="64 48 16 72 32 80 80 56 64 48" />
    <polygon points="112 72 64 96 80 104 128 80 112 72" />
  </symbol>
  <symbol id="1" viewBox="0 0 128 128">
    <path d="M64,49.12,125.76,80,64,110.88,2.24,80,64,49.12M64,48,0,80l64,32,64-32L64,48Z" />
    <polyline points="48 56 96 80 112 72 64 48" />
    <polyline points="0 80 48 104 64 96 16 72" />
  </symbol>
  <symbol id="2" viewBox="0 0 128 128">
    <path d="M64,49.12,125.76,80,64,110.88,2.24,80,64,49.12M64,48,0,80l64,32,64-32L64,48Z" />
    <polygon points="48 56 0 80 16 88 64 64 48 56" />
    <polygon points="96 80 48 104 64 112 112 88 96 80" />
  </symbol>
  <symbol id="3" viewBox="0 0 128 128">
    <path d="M64,49.12,125.76,80,64,110.88,2.24,80,64,49.12M64,48,0,80l64,32,64-32L64,48Z" />
    <polyline points="64 64 112 88 128 80 80 56" />
    <polyline points="16 88 64 112 80 104 32 80" />
  </symbol>
</svg>
