<svg xmlns="http://www.w3.org/2000/svg">
  <symbol id="0" viewBox="0 0 128 128">
    <polygon points="80 56 64 48 0 80 16 88 80 56"/>
    <path d="M64,49.12,125.76,80,64,110.88,2.24,80,64,49.12M64,48,0,80l64,32,64-32L64,48Z"/>
    <polygon points="128 80 112 72 48 104 64 112 128 80"/>
  </symbol>
  <symbol id="1" viewBox="0 0 128 128">
    <path d="M64,49.12,125.76,80,64,110.88,2.24,80,64,49.12M64,48,0,80l64,32,64-32L64,48Z"/>
    <polygon points="48 56 64 48 128 80 112 88 48 56"/>
    <polygon points="0 80 16 72 80 104 64 112 0 80"/>
  </symbol>
</svg>
