<svg xmlns="http://www.w3.org/2000/svg">
  <symbol id="e" viewBox="0 0 128 128">
    <path d="M63,17.62V47.38l-62,31V48.62l62-31M64,16,0,48V80L64,48V16Z"/>
    <path d="M64,17.12,125.76,48,64,78.88,2.24,48,64,17.12M64,16,0,48,64,80l64-32L64,16Z"/>
    <path d="M16,72c0-20,8-28,16-32s16,0,16,16Z"/>
  </symbol>
  <symbol id="n" viewBox="0 0 128 128">
    <path d="M1,49.62l62,31v29.76l-62-31V49.62M0,48V80l64,32V80L0,48Z"/>
    <path d="M64,17.12,125.76,48,64,78.88,2.24,48,64,17.12M64,16,0,48,64,80l64-32L64,16Z"/>
    <path d="M48,104c0-20-8-28-16-32S16,72,16,88Z"/>
  </symbol>
  <symbol id="s" viewBox="0 0 128 128">
    <path d="M65,17.62l62,31V78.38l-62-31V17.62M64,16V48l64,32V48L64,16Z"/>
    <path d="M64,17.12,125.76,48,64,78.88,2.24,48,64,17.12M64,16,0,48,64,80l64-32L64,16Z"/>
    <path d="M112,72c0-20-8-28-16-32S80,40,80,56Z"/>
  </symbol>
  <symbol id="w" viewBox="0 0 128 128">
    <path d="M127,49.62V79.38l-62,31V80.62l62-31M128,48,64,80v32l64-32V48Z"/>
    <path d="M64,17.12,125.76,48,64,78.88,2.24,48,64,17.12M64,16,0,48,64,80l64-32L64,16Z"/>
    <path d="M80,104c0-20,8-28,16-32s16,0,16,16Z"/>
  </symbol>

  <symbol id="el" viewBox="0 0 128 128">
    <path d="M63,17.62V47.38l-62,31V48.62l62-31M64,16,0,48V80L64,48V16Z"/>
    <path d="M64,17.12,125.76,48,64,78.88,2.24,48,64,17.12M64,16,0,48,64,80l64-32L64,16Z"/>
    <path d="M48,56c0-16-8-20-16-16L0,56V80Z"/>
  </symbol>
  <symbol id="nl" viewBox="0 0 128 128">
    <path d="M1,49.62l62,31v29.76l-62-31V49.62M0,48V80l64,32V80L0,48Z"/>
    <path d="M64,17.12,125.76,48,64,78.88,2.24,48,64,17.12M64,16,0,48,64,80l64-32L64,16Z"/>
    <path d="M16,88c0-16,8-20,16-16L64,88v24Z"/>
  </symbol>
  <symbol id="sl" viewBox="0 0 128 128">
    <path d="M65,17.62l62,31V78.38l-62-31V17.62M64,16V48l64,32V48L64,16Z"/>
    <path d="M64,17.12,125.76,48,64,78.88,2.24,48,64,17.12M64,16,0,48,64,80l64-32L64,16Z"/>
    <path d="M112,72c0-20-8-28-16-32L64,24V48Z"/>
  </symbol>
  <symbol id="wl" viewBox="0 0 128 128">
    <path d="M127,49.62V79.38l-62,31V80.62l62-31M128,48,64,80v32l64-32V48Z"/>
    <path d="M64,17.12,125.76,48,64,78.88,2.24,48,64,17.12M64,16,0,48,64,80l64-32L64,16Z"/>
    <path d="M80,104c0-20,8-28,16-32l32-16V80Z"/>
  </symbol>

  <symbol id="em" viewBox="0 0 128 128">
    <path d="M63,17.62V47.38l-62,31V48.62l62-31M64,16,0,48V80L64,48V16Z"/>
    <polygon points="64 48 64 24 0 56 0 80 64 48"/>
    <path d="M64,17.12,125.76,48,64,78.88,2.24,48,64,17.12M64,16,0,48,64,80l64-32L64,16Z"/>
  </symbol>
  <symbol id="nm" viewBox="0 0 128 128">
    <path d="M1,49.62l62,31v29.76l-62-31V49.62M0,48V80l64,32V80L0,48Z"/>
    <polygon points="0 80 0 56 64 88 64 112 0 80"/>
    <path d="M64,17.12,125.76,48,64,78.88,2.24,48,64,17.12M64,16,0,48,64,80l64-32L64,16Z"/>
  </symbol>
  <symbol id="sm" viewBox="0 0 128 128">
    <path d="M65,17.62l62,31V78.38l-62-31V17.62M64,16V48l64,32V48L64,16Z"/>
    <path d="M64,17.12,125.76,48,64,78.88,2.24,48,64,17.12M64,16,0,48,64,80l64-32L64,16Z"/>
    <polygon points="64 48 64 24 128 56 128 80 64 48"/>
  </symbol>
  <symbol id="wm" viewBox="0 0 128 128">
    <path d="M127,49.62V79.38l-62,31V80.62l62-31M128,48,64,80v32l64-32V48Z"/>
    <path d="M64,17.12,125.76,48,64,78.88,2.24,48,64,17.12M64,16,0,48,64,80l64-32L64,16Z"/>
    <polygon points="128 80 128 56 64 88 64 112 128 80"/>
  </symbol>

  <symbol id="er" viewBox="0 0 128 128">
    <path d="M63,17.62V47.38l-62,31V48.62l62-31M64,16,0,48V80L64,48V16Z"/>
    <path d="M64,17.12,125.76,48,64,78.88,2.24,48,64,17.12M64,16,0,48,64,80l64-32L64,16Z"/>
    <path d="M16,72c0-20,8-28,16-32L64,24V48Z"/>
  </symbol>
  <symbol id="nr" viewBox="0 0 128 128">
    <path d="M1,49.62l62,31v29.76l-62-31V49.62M0,48V80l64,32V80L0,48Z"/>
    <path d="M64,17.12,125.76,48,64,78.88,2.24,48,64,17.12M64,16,0,48,64,80l64-32L64,16Z"/>
    <path d="M48,104c0-20-8-28-16-32L0,56V80Z"/>
  </symbol>
  <symbol id="sr" viewBox="0 0 128 128">
    <path d="M65,17.62l62,31V78.38l-62-31V17.62M64,16V48l64,32V48L64,16Z"/>
    <path d="M64,17.12,125.76,48,64,78.88,2.24,48,64,17.12M64,16,0,48,64,80l64-32L64,16Z"/>
    <path d="M80,56c0-16,8-20,16-16l32,16V80Z"/>
  </symbol>
  <symbol id="wr" viewBox="0 0 128 128">
    <path d="M127,49.62V79.38l-62,31V80.62l62-31M128,48,64,80v32l64-32V48Z"/>
    <path d="M64,17.12,125.76,48,64,78.88,2.24,48,64,17.12M64,16,0,48,64,80l64-32L64,16Z"/>
    <path d="M112,88c0-16-8-20-16-16L64,88v24Z"/>
  </symbol>
</svg>
