<svg xmlns="http://www.w3.org/2000/svg">
  <symbol id="s" viewBox="0 0 128 128">
    <polygon points="96 40 128 56 64 88 96 104 0 104 0 56 32 72 96 40"/>
  </symbol>
  <symbol id="e" viewBox="0 0 128 128">
    <polygon points="32 40 0 56 64 88 32 104 128 104 128 56 96 72 32 40"/>
  </symbol>
  <symbol id="n" viewBox="0 0 128 128">
    <polygon points="32 104 0 88 64 56 32 40 128 40 128 88 96 72 32 104"/>
  </symbol>
  <symbol id="w" viewBox="0 0 128 128">
    <polygon points="96 104 128 88 64 56 96 40 0 40 0 88 32 72 96 104"/>
  </symbol>
  <symbol id="sw" viewBox="0 0 128 128">
    <polygon points="112 64 112 80 56 80 56 100 0 72 56 44 56 64 112 64" />
  </symbol>
  <symbol id="se" viewBox="0 0 128 128">
    <polygon points="44 36 84 36 84 76 128 76 64 108 0 76 44 76 44 36"/>
  </symbol>
  <symbol id="ne" viewBox="0 0 128 128">
    <polygon points="16 64 16 80 72 80 72 100 128 72 72 44 72 64 16 64"/>
  </symbol>
  <symbol id="nw" viewBox="0 0 128 128">
    <polygon points="44 104 84 104 84 64 128 64 64 32 0 64 44 64 44 104"/>
  </symbol>
</svg>
