<svg xmlns='http://www.w3.org/2000/svg' >
  <symbol id="n" viewBox="0 0 128 128">
    <path d="M64,49.12,125.76,80,64,110.88,2.24,80,64,49.12M64,48,0,80l64,32,64-32L64,48Z"/>
    <polygon points="32 80 80 56 112 72 64 96 32 80"/>
  </symbol>
  <symbol id="e" viewBox="0 0 128 128">
    <path d="M64,49.12,125.76,80,64,110.88,2.24,80,64,49.12M64,48,0,80l64,32,64-32L64,48Z"/>
    <polygon points="112 88 64 64 32 80 80 104 112 88"/>
  </symbol>
  <symbol id="w" viewBox="0 0 128 128">
    <path d="M64,49.12,125.76,80,64,110.88,2.24,80,64,49.12M64,48,0,80l64,32,64-32L64,48Z"/>
    <polygon points="96 80 48 56 16 72 64 96 96 80"/>
  </symbol>
  <symbol id="s" viewBox="0 0 128 128">
    <path d="M64,49.12,125.76,80,64,110.88,2.24,80,64,49.12M64,48,0,80l64,32,64-32L64,48Z"/>
    <polygon points="16 88 64 64 96 80 48 104 16 88"/>
  </symbol>
  <symbol id="sw" viewBox="0 0 128 128">
    <path d="M64,49.12,125.76,80,64,110.88,2.24,80,64,49.12M64,48,0,80l64,32,64-32L64,48Z"/>
    <path d="M48,56,16,72l16,8L16,88l32,16L96,80Z"/>
  </symbol>
  <symbol id="nw" viewBox="0 0 128 128">
    <path d="M64,49.12,125.76,80,64,110.88,2.24,80,64,49.12M64,48,0,80l64,32,64-32L64,48Z"/>
    <path d="M80,56,64,64,48,56,16,72,64,96l48-24Z"/>
  </symbol>
  <symbol id="ne" viewBox="0 0 128 128">
    <path d="M64,49.12,125.76,80,64,110.88,2.24,80,64,49.12M64,48,0,80l64,32,64-32L64,48Z"/>
    <path d="M112,72,80,56,32,80l48,24,32-16L96,80Z"/>
  </symbol>
  <symbol id="se" viewBox="0 0 128 128">
    <path d="M64,49.12,125.76,80,64,110.88,2.24,80,64,49.12M64,48,0,80l64,32,64-32L64,48Z"/>
    <path d="M112,88,64,64,16,88l32,16,16-8,16,8Z"/>
  </symbol>
  <symbol id="ns" viewBox="0 0 128 128">
    <path d="M64,49.12,125.76,80,64,110.88,2.24,80,64,49.12M64,48,0,80l64,32,64-32L64,48Z"/>
    <polygon points="16 88 80 56 112 72 48 104 16 88"/>
  </symbol>
  <symbol id="ew" viewBox="0 0 128 128">
    <path d="M64,49.12,125.76,80,64,110.88,2.24,80,64,49.12M64,48,0,80l64,32,64-32L64,48Z"/>
    <polygon points="112 88 48 56 16 72 80 104 112 88"/>
  </symbol>
  <symbol id="nsew" viewBox="0 0 128 128">
    <path d="M64,49.12,125.76,80,64,110.88,2.24,80,64,49.12M64,48,0,80l64,32,64-32L64,48Z"/>
    <polygon points="112 72 80 56 64 64 48 56 16 72 32 80 16 88 48 104 64 96 80 104 112 88 96 80 112 72"/>
  </symbol>
  <symbol id="-" viewBox="0 0 128 128">
    <path d="M64,49.12,125.76,80,64,110.88,2.24,80,64,49.12M64,48,0,80l64,32,64-32L64,48Z"/>
    <polygon points="32 80 64 96 96 80 64 64 32 80"/>
  </symbol>
  <symbol id="new" viewBox="0 0 128 128">
    <path d="M64,49.12,125.76,80,64,110.88,2.24,80,64,49.12M64,48,0,80l64,32,64-32L64,48Z"/>
    <path d="M112,72,80,56,64,64,48,56,16,72l64,32,32-16L96,80Z"/>
  </symbol>
  <symbol id="nse" viewBox="0 0 128 128">
    <path d="M64,49.12,125.76,80,64,110.88,2.24,80,64,49.12M64,48,0,80l64,32,64-32L64,48Z"/>
    <path d="M112,72,80,56,16,88l32,16,16-8,16,8,32-16L96,80Z"/>
  </symbol>
  <symbol id="sew" viewBox="0 0 128 128">
    <path d="M64,49.12,125.76,80,64,110.88,2.24,80,64,49.12M64,48,0,80l64,32,64-32L64,48Z"/>
    <path d="M112,88,48,56,16,72l16,8L16,88l32,16,16-8,16,8Z"/>
  </symbol>
  <symbol id="nsw" viewBox="0 0 128 128">
    <path d="M64,49.12,125.76,80,64,110.88,2.24,80,64,49.12M64,48,0,80l64,32,64-32L64,48Z"/>
    <path d="M80,56,64,64,48,56,16,72l16,8L16,88l32,16,64-32Z"/>
  </symbol>
  <symbol id="new1" viewBox="0 0 128 128">
    <path d="M64,49.12,125.76,80,64,110.88,2.24,80,64,49.12M64,48,0,80l64,32,64-32L64,48Z"/>
    <path d="M112,72,80,56V72L48,56,16,72l64,32,32-16"/>
  </symbol>
  <symbol id="nse1" viewBox="0 0 128 128">
    <path d="M64,49.12,125.76,80,64,110.88,2.24,80,64,49.12M64,48,0,80l64,32,64-32L64,48Z"/>
    <path d="M80,104l32-16H80l32-16L80,56,16,88l32,16Z"/>
  </symbol>
  <symbol id="sew1" viewBox="0 0 128 128">
    <path d="M64,49.12,125.76,80,64,110.88,2.24,80,64,49.12M64,48,0,80l64,32,64-32L64,48Z"/>
    <path d="M16,72V88l32,16V88l32,16,32-16L48,56Z"/>
  </symbol>
  <symbol id="nsw1" viewBox="0 0 128 128">
    <path d="M64,49.12,125.76,80,64,110.88,2.24,80,64,49.12M64,48,0,80l64,32,64-32L64,48Z"/>
    <path d="M80,56,48,72V56L16,72V88l32,16,64-32Z"/>
  </symbol>
  <symbol id="nsew1" viewBox="0 0 128 128">
    <path d="M64,49.12,125.76,80,64,110.88,2.24,80,64,49.12M64,48,0,80l64,32,64-32L64,48Z"/>
    <polygon points="112 72 80 56 64 64 48 56 16 72 16 88 48 104 64 96 80 104 112 88 112 72"/>
  </symbol>
  <symbol id="new2" viewBox="0 0 128 128">
    <path d="M64,49.12,125.76,80,64,110.88,2.24,80,64,49.12M64,48,0,80l64,32,64-32L64,48Z"/>
    <path d="M48,56,16,72l64,32,32-16L80,72h32L80,56Z"/>
  </symbol>
  <symbol id="nse2" viewBox="0 0 128 128">
    <path d="M64,49.12,125.76,80,64,110.88,2.24,80,64,49.12M64,48,0,80l64,32,64-32L64,48Z"/>
    <path d="M112,72,80,56,16,88l32,16L80,88v16l32-16Z"/>
  </symbol>
  <symbol id="sew2" viewBox="0 0 128 128">
    <path d="M64,49.12,125.76,80,64,110.88,2.24,80,64,49.12M64,48,0,80l64,32,64-32L64,48Z"/>
    <path d="M80,104l32-16L48,56,16,72,48,88H16l32,16Z"/>
  </symbol>
  <symbol id="nsw2" viewBox="0 0 128 128">
    <path d="M64,49.12,125.76,80,64,110.88,2.24,80,64,49.12M64,48,0,80l64,32,64-32L64,48Z"/>
    <path d="M80,56H48L16,72H48L16,88l32,16,64-32Z"/>
  </symbol>
  <symbol id="nsew2" viewBox="0 0 128 128">
    <path d="M64,49.12,125.76,80,64,110.88,2.24,80,64,49.12M64,48,0,80l64,32,64-32L64,48Z"/>
    <polygon points="80 104 112 88 96 80 112 72 80 56 48 56 16 72 32 80 16 88 48 104 80 104"/>
  </symbol>
  <symbol id="3" viewBox="0 0 128 128">
    <path d="M64,49.12,125.76,80,64,110.88,2.24,80,64,49.12M64,48,0,80l64,32,64-32L64,48Z"/>
    <polygon points="16 56 80 56 112 72 48 72 16 56"/>
  </symbol>
  <symbol id="6" viewBox="0 0 128 128">
    <path d="M64,49.12,125.76,80,64,110.88,2.24,80,64,49.12M64,48,0,80l64,32,64-32L64,48Z"/>
    <polygon points="112 56 48 56 16 72 80 72 112 56"/>
  </symbol>
  <symbol id="9" viewBox="0 0 128 128">
    <path d="M64,49.12,125.76,80,64,110.88,2.24,80,64,49.12M64,48,0,80l64,32,64-32L64,48Z"/>
    <polygon points="112 88 48 24 16 40 80 104 112 88"/>
  </symbol>
  <symbol id="12" viewBox="0 0 128 128">
    <path d="M64,49.12,125.76,80,64,110.88,2.24,80,64,49.12M64,48,0,80l64,32,64-32L64,48Z"/>
    <polygon points="16 88 80 24 112 40 48 104 16 88"/>
  </symbol>
</svg>
