<svg xmlns='http://www.w3.org/2000/svg' >
  <!-- diagonal and double height -->
  <symbol id="sw" viewBox="0 0 128 128">
    <path d="M64,49.12,125.76,80,64,110.88,2.24,80,64,49.12M64,48,0,80l64,32,64-32L64,48Z"/>
    <polygon points="16 88 48 104 48 56 16 72 16 88"/>
  </symbol>
  <symbol id="nw" viewBox="0 0 128 128">
    <path d="M64,49.12,125.76,80,64,110.88,2.24,80,64,49.12M64,48,0,80l64,32,64-32L64,48Z"/>
    <polygon points="112 72 80 56 48 56 16 72 112 72"/>
  </symbol>
  <symbol id="ne" viewBox="0 0 128 128">
    <path d="M64,49.12,125.76,80,64,110.88,2.24,80,64,49.12M64,48,0,80l64,32,64-32L64,48Z"/>
    <path d="M112,72,80,56v48l32-16Z"/>
  </symbol>
  <symbol id="se" viewBox="0 0 128 128">
    <path d="M64,49.12,125.76,80,64,110.88,2.24,80,64,49.12M64,48,0,80l64,32,64-32L64,48Z"/>
    <path d="M112,88H16l32,16H80Z"/>
  </symbol>
  <symbol id="12" viewBox="0 0 128 128">
    <path d="M64,49.12,125.76,80,64,110.88,2.24,80,64,49.12M64,48,0,80l64,32,64-32L64,48Z"/>
    <polygon points="16 88 80 40 112 56 48 104 16 88"/>
  </symbol>
  <symbol id="9" viewBox="0 0 128 128">
    <path d="M64,49.12,125.76,80,64,110.88,2.24,80,64,49.12M64,48,0,80l64,32,64-32L64,48Z"/>
    <polygon points="112 88 48 40 16 56 80 104 112 88"/>
  </symbol>
  <symbol id="3" viewBox="0 0 128 128">
    <path d="M64,49.12,125.76,80,64,110.88,2.24,80,64,49.12M64,48,0,80l64,32,64-32L64,48Z"/>
    <polygon points="16 72 80 56 112 72 48 88 16 72"/>
  </symbol>
  <symbol id="6" viewBox="0 0 128 128">
    <path d="M64,49.12,125.76,80,64,110.88,2.24,80,64,49.12M64,48,0,80l64,32,64-32L64,48Z"/>
    <polygon points="112 72 48 56 16 72 80 88 112 72"/>
  </symbol>
</svg>
